<?xml version="1.0" encoding="UTF-8"?>
<!DOCTYPE svg PUBLIC "-//W3C//DTD SVG 1.1//EN" "http://www.w3.org/Graphics/SVG/1.1/DTD/svg11.dtd">
<svg xmlns="http://www.w3.org/2000/svg" version="1.1" width="736px" height="712px" style="shape-rendering:geometricPrecision; text-rendering:geometricPrecision; image-rendering:optimizeQuality; fill-rule:evenodd; clip-rule:evenodd" xmlns:xlink="http://www.w3.org/1999/xlink">
<g><path style="opacity:0.756" fill="#896142" d="M 508.5,208.5 C 495.122,212.735 481.122,217.402 466.5,222.5C 464.647,221.811 463.481,220.478 463,218.5C 462.333,214.5 462.333,210.5 463,206.5C 464.875,203.813 467.375,201.979 470.5,201C 469.833,200.667 469.167,200.333 468.5,200C 470.035,199.504 471.535,199.67 473,200.5C 476.001,199.082 479.168,198.249 482.5,198C 482.167,197.667 481.833,197.333 481.5,197C 491.897,194.306 502.23,191.306 512.5,188C 518.555,185.79 523.888,183.456 528.5,181C 531.817,180.502 535.15,180.335 538.5,180.5C 538.334,185.511 538.501,190.511 539,195.5C 539.333,193.833 539.667,192.167 540,190.5C 540.938,193.88 540.271,196.88 538,199.5C 537.667,199.167 537.333,198.833 537,198.5C 527.517,202.073 518.017,205.406 508.5,208.5 Z"/></g>
<g><path style="opacity:0.007" fill="#896142" d="M 539.5,183.5 C 540.622,185.288 540.789,187.288 540,189.5C 539.505,187.527 539.338,185.527 539.5,183.5 Z"/></g>
<g><path style="opacity:0.006" fill="#896142" d="M 505.5,188.5 C 505.897,187.475 506.563,187.308 507.5,188C 506.906,188.464 506.239,188.631 505.5,188.5 Z"/></g>
<g><path style="opacity:0.004" fill="#896142" d="M 508.5,208.5 C 509.833,209.167 509.833,209.167 508.5,208.5 Z"/></g>
<g><path style="opacity:0.761" fill="#896142" d="M 634.5,229.5 C 635.421,231.269 636.588,232.935 638,234.5C 638.333,234.167 638.667,233.833 639,233.5C 639.758,236.233 639.258,238.733 637.5,241C 639.103,242.907 638.77,244.407 636.5,245.5C 628.807,246.197 621.14,246.864 613.5,247.5C 612.338,252.467 612.171,257.467 613,262.5C 613.333,261.167 613.667,259.833 614,258.5C 614.495,260.473 614.662,262.473 614.5,264.5C 621.799,265.35 629.132,265.683 636.5,265.5C 637.726,268.003 638.726,270.669 639.5,273.5C 639.124,276.01 638.29,278.343 637,280.5C 632.586,281.303 628.086,281.803 623.5,282C 627.167,282.333 630.833,282.667 634.5,283C 613.709,284.094 593.043,283.594 572.5,281.5C 572.334,276.489 572.501,271.489 573,266.5C 576.818,265.335 580.652,264.168 584.5,263C 583.903,261.938 583.57,260.772 583.5,259.5C 584.014,254.149 584.681,248.816 585.5,243.5C 586.5,242.5 587.5,241.5 588.5,240.5C 597.957,235.826 607.457,231.493 617,227.5C 621.948,229.233 627.781,229.9 634.5,229.5 Z"/></g>
<g><path style="opacity:0.005" fill="#896142" d="M 500.5,228.5 C 501.675,228.281 502.675,228.614 503.5,229.5C 501.95,231.959 499.95,232.626 497.5,231.5C 498.993,230.859 499.993,229.859 500.5,228.5 Z"/></g>
<g><path style="opacity:0.004" fill="#896142" d="M 634.5,229.5 C 634.897,228.475 635.563,228.308 636.5,229C 635.906,229.464 635.239,229.631 634.5,229.5 Z"/></g>
<g><path style="opacity:0.877" fill="#896142" d="M 496.5,236.5 C 499.856,236.15 502.856,236.983 505.5,239C 511.318,245.319 517.318,251.486 523.5,257.5C 524.833,260.167 524.833,262.833 523.5,265.5C 516.962,273.387 509.296,279.72 500.5,284.5C 499.106,284.379 497.772,284.046 496.5,283.5C 490.14,277.14 483.806,270.806 477.5,264.5C 476.167,261.5 476.167,258.5 477.5,255.5C 484.179,249.364 490.512,243.031 496.5,236.5 Z"/></g>
<g><path style="opacity:0.004" fill="#896142" d="M 582.5,247.5 C 583.525,247.897 583.692,248.563 583,249.5C 582.536,248.906 582.369,248.239 582.5,247.5 Z"/></g>
<g><path style="opacity:0.005" fill="#896142" d="M 613.5,248.5 C 614.573,249.251 614.74,250.251 614,251.5C 613.517,250.552 613.351,249.552 613.5,248.5 Z"/></g>
<g><path style="opacity:0.004" fill="#896142" d="M 582.5,251.5 C 583.525,251.897 583.692,252.563 583,253.5C 582.536,252.906 582.369,252.239 582.5,251.5 Z"/></g>
<g><path style="opacity:0.875" fill="#896142" d="M 476.5,272.5 C 478.604,272.201 480.604,272.534 482.5,273.5C 488.149,278.992 493.983,284.992 500,291.5C 506.298,285.372 512.798,279.372 519.5,273.5C 521.833,272.167 524.167,272.167 526.5,273.5C 533.132,280.484 539.465,287.15 545.5,293.5C 546.833,296.5 546.833,299.5 545.5,302.5C 539.522,308.81 533.188,314.81 526.5,320.5C 524.167,321.833 521.833,321.833 519.5,320.5C 513.805,314.474 508.139,308.474 502.5,302.5C 496.151,308.517 489.817,314.517 483.5,320.5C 481.167,321.833 478.833,321.833 476.5,320.5C 470.167,313.5 463.5,306.833 456.5,300.5C 455.167,297.5 455.167,294.5 456.5,291.5C 463.274,285.144 469.94,278.81 476.5,272.5 Z"/></g>
<g><path style="opacity:0.004" fill="#896142" d="M 589.5,294.5 C 590.833,295.167 590.833,295.167 589.5,294.5 Z"/></g>
<g><path style="opacity:0.915" fill="#896142" d="M 586.5,295.5 C 600.334,296.158 614.167,296.825 628,297.5C 628.224,304.037 628.724,310.537 629.5,317C 628.508,358.47 628.175,399.97 628.5,441.5C 625.159,441.656 622.326,442.989 620,445.5C 618.513,444.747 618.346,443.914 619.5,443C 618.833,442.667 618.167,442.333 617.5,442C 605.764,441.644 594.097,441.477 582.5,441.5C 581.667,401.171 581.167,360.837 581,320.5C 580.667,322.833 580.333,325.167 580,327.5C 579.333,318.833 579.333,310.167 580,301.5C 580.333,304.833 580.667,308.167 581,311.5C 581.499,306.511 581.666,301.511 581.5,296.5C 583.415,296.784 585.081,296.451 586.5,295.5 Z"/></g>
<g><path style="opacity:0.904" fill="#896142" d="M 212.5,370.5 C 213.871,363.803 216.705,356.803 221,349.5C 234.567,333.741 251.734,324.574 272.5,322C 270.833,321.667 269.167,321.333 267.5,321C 273.677,320.618 279.844,320.118 286,319.5C 293.681,319.779 299.847,322.112 304.5,326.5C 313.936,331.592 323.436,336.592 333,341.5C 335.06,342.59 336.393,344.257 337,346.5C 337.333,346.167 337.667,345.833 338,345.5C 338.833,377.505 338.667,409.505 337.5,441.5C 321.447,441.838 305.447,441.838 289.5,441.5C 289.333,411.165 289.5,380.832 290,350.5C 290.5,350 291,349.5 291.5,349C 289.167,348.333 286.833,348.333 284.5,349C 276.989,351.013 270.322,355.513 264.5,362.5C 263.098,367.736 261.264,372.736 259,377.5C 258.667,407.5 258.333,437.5 258,467.5C 253.33,493.605 238.496,511.271 213.5,520.5C 205.152,522.682 196.818,524.515 188.5,526C 181.586,526.186 174.753,526.686 168,527.5C 167.383,526.551 167.549,525.718 168.5,525C 151.855,524.286 136.855,519.119 123.5,509.5C 119.36,504.939 115.027,500.605 110.5,496.5C 106.971,489.9 103.471,482.9 100,475.5C 98.7233,449.869 98.0566,424.202 98,398.5C 96.883,399.949 96.2163,401.616 96,403.5C 95.3333,400.167 95.3333,396.833 96,393.5C 96.3333,394.5 96.6667,395.5 97,396.5C 99.8612,391.335 103.361,387.501 107.5,385C 112.037,383.469 116.37,381.469 120.5,379C 120.167,378.667 119.833,378.333 119.5,378C 120.899,377.405 122.232,377.572 123.5,378.5C 129.048,374.177 134.881,370.511 141,367.5C 142.154,368.743 143.488,369.743 145,370.5C 146.418,376.158 146.585,381.825 145.5,387.5C 146.316,414.81 146.816,442.143 147,469.5C 148.704,483.786 154.87,495.619 165.5,505C 178.582,512.568 189.915,510.401 199.5,498.5C 205.028,489.947 208.694,480.614 210.5,470.5C 210.089,437.269 210.756,403.936 212.5,370.5 Z"/></g>
<g><path style="opacity:0.908" fill="#896142" d="M 382.5,344.5 C 385.556,345.296 388.556,346.296 391.5,347.5C 397.902,351.242 404.235,355.076 410.5,359C 415.132,361.032 419.966,363.865 425,367.5C 425.333,367.167 425.667,366.833 426,366.5C 427.129,382.674 427.962,398.841 428.5,415C 444.167,415.667 459.833,415.667 475.5,415C 476.624,414.751 477.624,414.251 478.5,413.5C 477.178,390.869 477.178,368.202 478.5,345.5C 481.249,344.514 483.916,344.847 486.5,346.5C 498.289,353.64 510.289,360.306 522.5,366.5C 523.863,367.893 524.696,369.559 525,371.5C 525.333,371.167 525.667,370.833 526,370.5C 526.167,373.667 526.333,376.833 526.5,380C 524.915,388.212 524.249,397.879 524.5,409C 524.978,419.538 525.478,430.038 526,440.5C 524.915,441.293 523.748,441.96 522.5,442.5C 491.606,441.434 460.606,441.267 429.5,442C 427.926,443.826 427.093,445.993 427,448.5C 426.088,462.167 421.255,475.167 412.5,487.5C 396.998,504.842 377.831,516.175 355,521.5C 340.54,523.933 326.04,525.433 311.5,526C 307.577,520.78 307.577,515.446 311.5,510C 356.011,506.166 379.177,482.999 381,440.5C 381.822,409.304 381.655,378.137 380.5,347C 381.056,345.989 381.722,345.156 382.5,344.5 Z"/></g>
<g><path style="opacity:0.004" fill="#896142" d="M 212.5,370.5 C 211.475,370.103 211.308,369.437 212,368.5C 212.464,369.094 212.631,369.761 212.5,370.5 Z"/></g>
<g><path style="opacity:0.008" fill="#896142" d="M 629.5,430.5 C 630.525,430.897 630.692,431.563 630,432.5C 629.536,431.906 629.369,431.239 629.5,430.5 Z"/></g>
<g><path style="opacity:0.005" fill="#896142" d="M 629.5,433.5 C 630.573,434.251 630.74,435.251 630,436.5C 629.517,435.552 629.351,434.552 629.5,433.5 Z"/></g>
<g><path style="opacity:0.004" fill="#896142" d="M 578.5,435.5 C 579.525,435.897 579.692,436.563 579,437.5C 578.536,436.906 578.369,436.239 578.5,435.5 Z"/></g>
<g><path style="opacity:0.004" fill="#896142" d="M 578.5,439.5 C 580.337,439.639 580.67,440.306 579.5,441.5C 578.702,441.043 578.369,440.376 578.5,439.5 Z"/></g>
<g><path style="opacity:0.004" fill="#896142" d="M 297.5,443.5 C 298.833,444.167 298.833,444.167 297.5,443.5 Z"/></g>
<g><path style="opacity:0.008" fill="#896142" d="M 258.5,468.5 C 259.525,468.897 259.692,469.563 259,470.5C 258.536,469.906 258.369,469.239 258.5,468.5 Z"/></g>
<g><path style="opacity:0.004" fill="#896142" d="M 97.5,470.5 C 98.525,470.897 98.6917,471.563 98,472.5C 97.5357,471.906 97.369,471.239 97.5,470.5 Z"/></g>
<g><path style="opacity:0.007" fill="#896142" d="M 321.5,507.5 C 322.251,506.427 323.251,506.26 324.5,507C 323.552,507.483 322.552,507.649 321.5,507.5 Z"/></g>
<g><path style="opacity:0.008" fill="#896142" d="M 342.5,525.5 C 342.897,524.475 343.563,524.308 344.5,525C 343.906,525.464 343.239,525.631 342.5,525.5 Z"/></g>
<g><path style="opacity:0.782" fill="#896142" d="M 357.5,552.5 C 372.71,548.099 387.877,543.432 403,538.5C 406.044,538.546 407.877,540.046 408.5,543C 408.265,547.805 407.265,552.638 405.5,557.5C 384.146,563.8 362.98,570.8 342,578.5C 338.226,579.569 334.393,580.236 330.5,580.5C 330.38,578.801 330.046,577.135 329.5,575.5C 330.958,571.35 331.958,567.017 332.5,562.5C 340.711,558.682 349.045,555.349 357.5,552.5 Z"/></g>
<g><path style="opacity:0.86" fill="#896142" d="M 155.5,545.5 C 158.298,546.465 160.964,546.965 163.5,547C 163.167,547.333 162.833,547.667 162.5,548C 165.06,549.773 167.393,551.773 169.5,554C 169.167,554.333 168.833,554.667 168.5,555C 171.656,558.322 174.989,561.488 178.5,564.5C 181.042,561.789 183.709,559.289 186.5,557C 184.729,556.465 184.396,555.631 185.5,554.5C 186.451,555.326 187.451,555.492 188.5,555C 188.167,554.667 187.833,554.333 187.5,554C 189.772,553.059 191.772,551.726 193.5,550C 193.167,549.667 192.833,549.333 192.5,549C 195.267,547.107 198.267,546.107 201.5,546C 209.979,552.978 217.979,560.478 225.5,568.5C 227.179,571.946 226.512,574.779 223.5,577C 223.833,577.333 224.167,577.667 224.5,578C 221.55,579.615 218.884,581.615 216.5,584C 216.833,584.333 217.167,584.667 217.5,585C 213.167,588.667 208.833,592.333 204.5,596C 204.833,596.333 205.167,596.667 205.5,597C 202.668,598.294 199.835,598.461 197,597.5C 190.676,591.676 184.509,585.676 178.5,579.5C 172.958,584.875 167.624,590.375 162.5,596C 162.833,596.333 163.167,596.667 163.5,597C 160.637,597.206 158.804,598.04 158,599.5C 157.167,599.167 156.333,598.833 155.5,598.5C 145.909,590.907 137.576,582.241 130.5,572.5C 131.059,569.715 132.392,567.382 134.5,565.5C 141.383,558.586 148.383,551.92 155.5,545.5 Z"/></g>
<g><path style="opacity:0.004" fill="#896142" d="M 357.5,552.5 C 356.833,551.167 356.833,551.167 357.5,552.5 Z"/></g>
<g><path style="opacity:0.004" fill="#896142" d="M 328.5,568.5 C 329.525,568.897 329.692,569.563 329,570.5C 328.536,569.906 328.369,569.239 328.5,568.5 Z"/></g>
</svg>
